<svg width="21" height="21" viewBox="0 0 21 21" fill="none" xmlns="http://www.w3.org/2000/svg">
<path d="M10.5089 0C4.70487 0 0 4.72797 0 10.5605C0 13.4628 0.926266 15.7179 2.73308 17.5077C2.82054 17.4777 2.91197 17.4497 2.99943 17.4098C5.17198 16.421 8.70809 14.4176 11.9162 13.7045C11.9162 13.7025 11.9162 13.7005 11.9162 13.6965C11.9202 13.6945 11.9262 13.6945 11.9301 13.6925C12.0097 13.6606 12.0474 13.6086 12.0534 13.5647C12.0574 13.5447 12.0653 13.4768 11.9918 13.3649C11.7433 13.3789 11.4173 13.333 10.99 13.2012C7.4797 12.1285 7.47771 7.26673 7.61287 7.80804C7.69039 8.11964 7.97463 8.37331 8.34037 8.57506C8.29863 8.33137 8.20322 7.74012 8.18135 7.49843C8.05613 6.15614 8.35627 4.87778 8.46559 4.10276C8.59479 4.80587 9.31235 5.66477 9.31235 5.66477C10.02 2.36898 12.3138 1.16851 13.2738 1.05266C13.415 1.02669 13.5581 1.01271 13.7052 1.01271C13.8145 1.01271 13.9238 1.02269 14.0292 1.03668C14.1146 0.838929 12.4708 0 10.5089 0Z" fill="#245D3A"/>
<path d="M13.6535 17.0403C8.93469 18.5983 5.95514 23.0286 1.41127 19.9186C1.41127 19.9186 4.67307 18.1728 7.23124 16.9164C9.88083 15.6161 14.8083 12.5839 21 17.0403C21 17.0403 16.9332 15.9576 13.6535 17.0403Z" fill="#245D3A"/>
<path d="M19.6285 6.78932C19.6205 7.28469 19.9286 11.2916 18.9348 11.9427C18.9805 10.155 18.6108 10.0631 18.6108 10.0631C18.571 10.6624 18.2848 11.9507 17.1478 12.8016C16.0924 13.5906 16.1401 13.8923 16.3726 14.1419C17.2373 14.4176 18.2351 14.901 19.1057 15.5062C19.1991 15.4043 19.6345 14.3597 19.7179 14.1479C21.1073 10.6424 19.6424 5.97436 19.6285 6.78932Z" fill="#245D3A"/>
<path d="M18.1019 6.86924H15.514V13.9442C15.0309 13.8383 14.5499 13.7744 14.0749 13.7485V6.86924H11.3617V5.42308H14.0749V2.28708H15.514V5.42308H18.1019V6.86924Z" fill="#245D3A"/>
</svg>
