<svg width="46" height="46" viewBox="0 0 46 46" fill="none" xmlns="http://www.w3.org/2000/svg">
<path d="M22.1372 42.604V41.488H17.9852V39.22H20.9852V34.096H13.6412V39.22H16.5812V41.488H12.4772V42.604H22.1372ZM19.5812 38.104H15.0332V35.2H19.5812V38.104ZM30.3 33.256V39.28H31.692V33.256H30.3ZM31.692 43.816V39.844H24.66V43.816H31.692ZM30.3 42.724H26.064V40.924H30.3V42.724ZM23.244 36.412C23.244 37.924 24.492 38.896 26.064 38.896C27.672 38.896 28.896 37.924 28.896 36.412C28.896 34.912 27.648 33.832 26.064 33.832C24.48 33.832 23.244 34.936 23.244 36.412ZM24.588 36.4C24.588 35.632 25.164 34.996 26.064 34.996C26.988 34.996 27.552 35.608 27.552 36.4C27.552 37.216 26.916 37.816 26.064 37.816C25.176 37.816 24.588 37.228 24.588 36.4Z" fill="#245D3A"/>
<path d="M24.3412 3.02589L12.2806 23.926C11.4864 25.2939 12.4718 27 14.0603 27H38.1962C39.7699 27 40.7701 25.2939 39.9759 23.926L27.9153 3.02589C27.1063 1.65804 25.1354 1.65804 24.3412 3.02589Z" fill="#2E9167"/>
<path d="M14.6093 8.77967L5.2185 24.6638C4.60008 25.7033 5.36737 27 6.60421 27H25.3973C26.6227 27 27.4014 25.7033 26.783 24.6638L17.3922 8.77967C16.7623 7.74011 15.2277 7.74011 14.6093 8.77967Z" fill="#245D3A"/>
</svg>
