<svg width="36" height="42" viewBox="0 0 36 42" fill="none" xmlns="http://www.w3.org/2000/svg">
<path d="M17.0412 40.508V39.74H12.7452V37.232H15.8772V32.288H8.71319V37.232H11.8332V39.74H7.57319V40.508H17.0412ZM14.9652 36.476H9.62519V33.044H14.9652V36.476ZM26.524 37.34V31.352H25.612V37.34H26.524ZM26.536 41.696V37.892H19.744V41.696H26.536ZM25.624 40.94H20.656V38.648H25.624V40.94ZM20.932 31.94C19.444 31.94 18.208 32.948 18.208 34.472C18.208 35.996 19.444 36.956 20.932 36.956C22.42 36.956 23.644 35.996 23.644 34.46C23.644 32.948 22.42 31.94 20.932 31.94ZM20.932 32.684C22.036 32.684 22.768 33.428 22.768 34.472C22.768 35.504 22.024 36.212 20.932 36.212C19.876 36.212 19.096 35.504 19.096 34.46C19.096 33.428 19.876 32.684 20.932 32.684Z" fill="#929292"/>
<path d="M19.3412 1.02589L7.28062 21.926C6.48638 23.2939 7.47181 25 9.06028 25H33.1962C34.7699 25 35.7701 23.2939 34.9759 21.926L22.9153 1.02589C22.1063 -0.341962 20.1354 -0.341962 19.3412 1.02589Z" fill="#B7B7B7"/>
<path d="M9.60931 6.77967L0.2185 22.6638C-0.399919 23.7033 0.367369 25 1.60421 25H20.3973C21.6227 25 22.4014 23.7033 21.783 22.6638L12.3922 6.77967C11.7623 5.74011 10.2277 5.74011 9.60931 6.77967Z" fill="#929292"/>
</svg>
