<svg width="11" height="11" viewBox="0 0 11 11" fill="none" xmlns="http://www.w3.org/2000/svg">
<mask id="path-1-inside-1_560_5073" fill="white">
<path fill-rule="evenodd" clip-rule="evenodd" d="M5.50028 10.9936C8.53784 10.9936 11.0003 8.53262 11.0003 5.49682C11.0003 2.46101 8.53784 0 5.50028 0C2.46271 0 0.000284357 2.46101 0.000284357 5.49682C0.000284357 6.64426 0.352068 7.70958 0.953728 8.59094L0 11L2.41228 10.0461C3.29261 10.6441 4.3556 10.9936 5.50028 10.9936Z"/>
</mask>
<path d="M0.953728 8.59094L1.88352 8.95903L2.0789 8.46551L1.77964 8.02713L0.953728 8.59094ZM0 11L-0.929789 10.6319L-1.77987 12.7792L0.367726 11.9299L0 11ZM2.41228 10.0461L2.9742 9.21894L2.53656 8.92163L2.04455 9.11619L2.41228 10.0461ZM10.0003 5.49682C10.0003 7.97979 7.9861 9.99363 5.50028 9.99363V11.9936C9.08958 11.9936 12.0003 9.08545 12.0003 5.49682H10.0003ZM5.50028 1C7.9861 1 10.0003 3.01384 10.0003 5.49682H12.0003C12.0003 1.90818 9.08958 -1 5.50028 -1V1ZM1.00028 5.49682C1.00028 3.01384 3.01445 1 5.50028 1V-1C1.91097 -1 -0.999716 1.90818 -0.999716 5.49682H1.00028ZM1.77964 8.02713C1.28777 7.30661 1.00028 6.43675 1.00028 5.49682H-0.999716C-0.999716 6.85176 -0.583633 8.11255 0.127821 9.15475L1.77964 8.02713ZM0.929789 11.3681L1.88352 8.95903L0.0239396 8.22285L-0.929789 10.6319L0.929789 11.3681ZM2.04455 9.11619L-0.367726 10.0701L0.367726 11.9299L2.78 10.9761L2.04455 9.11619ZM5.50028 9.99363C4.56221 9.99363 3.69398 9.7079 2.9742 9.21894L1.85035 10.8733C2.89123 11.5804 4.149 11.9936 5.50028 11.9936V9.99363Z" fill="#2E9167" mask="url(#path-1-inside-1_560_5073)"/>
</svg>
