<svg width="46" height="46" viewBox="0 0 46 46" fill="none" xmlns="http://www.w3.org/2000/svg">
<path d="M35 8.38084C35 8.06133 34.8376 7.75955 34.5596 7.56239L24.2096 0.221646C23.793 -0.0738817 23.207 -0.0738822 22.7904 0.221646L12.4404 7.56239C12.1624 7.75955 12 8.06133 12 8.38084V23.9599C12 24.5343 12.5149 25 13.15 25H33.85C34.4851 25 35 24.5343 35 23.9599V8.38084Z" fill="#B7B7B7"/>
<path d="M26.6726 37.18C26.6726 36.232 25.5326 35.752 23.5046 35.752C21.4766 35.752 20.3486 36.232 20.3486 37.18C20.3486 38.032 21.2966 38.524 23.0246 38.596V39.364H18.7646V40.12H28.2326V39.364H23.9366V38.596C25.6886 38.536 26.6726 38.044 26.6726 37.18ZM26.9846 43.708V40.708H20.0126V43.708H26.9846ZM26.0726 42.976H20.9246V41.452H26.0726V42.976ZM27.6446 35.38V34.636H19.3526V35.38H27.6446ZM25.7246 37.18C25.7246 37.696 24.7886 37.888 23.5046 37.888C22.2326 37.888 21.2846 37.696 21.2846 37.18C21.2846 36.664 22.2326 36.472 23.5046 36.472C24.7886 36.472 25.7246 36.664 25.7246 37.18ZM25.3406 34.12V33.364H21.7286V34.12H25.3406Z" fill="#929292"/>
<rect x="19" y="13" width="9" height="12" fill="#929292"/>
</svg>
