<svg width="25" height="44" viewBox="0 0 25 44" fill="none" xmlns="http://www.w3.org/2000/svg">
<path d="M25 8.38084C25 8.06133 24.8235 7.75955 24.5214 7.56239L13.2714 0.221646C12.8184 -0.0738817 12.1816 -0.0738822 11.7286 0.221646L0.478647 7.56239C0.176487 7.75955 0 8.06133 0 8.38084V23.9599C0 24.5343 0.559644 25 1.25 25H23.75C24.4404 25 25 24.5343 25 23.9599V8.38084Z" fill="#2E9167"/>
<path d="M15.8646 37.612C15.8646 36.712 14.8086 36.112 12.5046 36.112C10.2006 36.112 9.13258 36.712 9.13258 37.612C9.13258 38.38 9.97258 38.944 11.7726 39.064V39.436H7.66858V40.54H17.3286V39.436H13.1766V39.076C15.0126 38.956 15.8646 38.392 15.8646 37.612ZM16.0926 43.888V40.984H8.90458V43.888H16.0926ZM16.7286 35.86V34.804H8.26858V35.86H16.7286ZM10.6206 34.408H14.3766V33.364H10.6206V34.408ZM14.6886 42.892H10.3086V42.016H14.6886V42.892ZM14.4366 37.612C14.4366 37.924 13.8486 38.128 12.5046 38.128C11.1606 38.128 10.5726 37.924 10.5726 37.612C10.5726 37.288 11.1606 37.084 12.5046 37.084C13.8486 37.084 14.4366 37.288 14.4366 37.612Z" fill="#245D3A"/>
<rect x="8" y="13" width="9" height="12" fill="#245D3A"/>
</svg>
