<svg width="45" height="42" viewBox="0 0 45 42" fill="none" xmlns="http://www.w3.org/2000/svg">
<path d="M6.8662 37.3517C5.7262 37.6277 3.6742 37.7837 1.8742 37.7957V31.8077H0.962203V38.5997H1.5982C3.1942 38.5997 5.7142 38.4197 6.9982 38.1197L6.8662 37.3517ZM8.6662 30.7637H7.7542V41.2517H8.6662V35.7077H10.3822V34.9277H8.6662V30.7637ZM18.701 30.7637V41.2517H19.613V30.7637H18.701ZM17.045 34.0757C17.045 32.5397 15.869 31.5797 14.321 31.5797C12.797 31.5797 11.585 32.5997 11.585 34.0757C11.585 35.4797 12.773 36.5117 14.321 36.5117C15.833 36.5117 17.045 35.5637 17.045 34.0757ZM16.157 34.0757C16.157 35.0597 15.317 35.7437 14.321 35.7437C13.301 35.7437 12.473 35.0477 12.473 34.0757C12.473 33.0917 13.313 32.3597 14.321 32.3597C15.341 32.3597 16.157 33.0197 16.157 34.0757ZM18.089 38.5877L18.005 37.8437C17.237 37.9397 15.881 38.0237 14.417 38.0717C13.145 38.1437 11.909 38.1677 11.009 38.1557L11.177 38.9597C11.969 38.9477 13.121 38.9117 14.357 38.8517C15.689 38.7917 17.189 38.6957 18.089 38.5877ZM33.4122 41.2517V30.7637H32.5122V41.2517H33.4122ZM31.3362 40.7237V31.0157H30.4482V34.5437H28.5882V35.3117H30.4482V40.7237H31.3362ZM29.8122 37.9397C28.6722 37.1837 27.4482 35.6597 27.4482 33.6197V31.7357H26.5482V33.6437C26.5482 35.6957 25.4922 37.4837 24.3042 38.2397L24.8682 38.9237C25.9122 38.1677 26.7762 36.7997 27.0042 35.5997C27.3402 36.7877 28.4442 38.0357 29.2482 38.6117L29.8122 37.9397ZM44.383 36.3317V35.5757H34.915V36.3317H39.175V37.7117H36.067V41.1077H43.231V37.7117H40.087V36.3317H44.383ZM43.303 32.9237C43.303 31.6757 41.947 30.9557 39.643 30.9557C37.351 30.9557 35.983 31.6757 35.983 32.9237C35.983 34.1477 37.351 34.8677 39.643 34.8677C41.947 34.8677 43.303 34.1477 43.303 32.9237ZM42.427 32.9237C42.427 33.7397 41.323 34.1237 39.643 34.1237C37.963 34.1237 36.883 33.7397 36.883 32.9237C36.883 32.0837 37.963 31.6997 39.643 31.6997C41.323 31.6997 42.427 32.0837 42.427 32.9237ZM42.319 40.3517H36.991V38.4557H42.319V40.3517Z" fill="#929292"/>
<path d="M10 12.4952C10 19.1273 15.6 24.5098 22.5 24.5098C22.5 17.8778 16.91 12.4952 10 12.4952Z" fill="#929292"/>
<path d="M35 12.4952C28.1 12.4952 22.5 17.8778 22.5 24.5098C29.41 24.5098 35 19.1369 35 12.4952Z" fill="#929292"/>
<path d="M22.5 12.4952C26.0899 12.4952 29 9.69805 29 6.2476C29 2.79714 26.0899 0 22.5 0C18.9101 0 16 2.79714 16 6.2476C16 9.69805 18.9101 12.4952 22.5 12.4952Z" fill="#B7B7B7"/>
</svg>
