<svg width="46" height="46" viewBox="0 0 46 46" fill="none" xmlns="http://www.w3.org/2000/svg">
<path d="M9.8582 33.256H8.4542V43.948H9.8582V38.488H11.3942V37.324H9.8582V33.256ZM7.7342 40.84L7.5902 39.724C6.4502 40 4.8062 40.144 3.3182 40.144V34.324H1.9262V41.344H2.8982C4.1702 41.344 6.4502 41.188 7.7342 40.84ZM13.761 36.496C13.761 35.74 14.337 35.128 15.297 35.128C16.269 35.128 16.845 35.74 16.845 36.496C16.845 37.288 16.269 37.9 15.297 37.9C14.337 37.9 13.761 37.288 13.761 36.496ZM20.925 33.256H19.533V43.948H20.925V33.256ZM12.321 36.508C12.321 37.996 13.497 39.076 15.297 39.076C17.109 39.076 18.261 37.996 18.261 36.508C18.261 35.008 17.109 33.94 15.297 33.94C13.497 33.94 12.321 35.008 12.321 36.508ZM19.089 41.212L18.969 40.084C18.021 40.204 16.725 40.3 15.393 40.348C14.181 40.396 13.149 40.408 11.913 40.408L12.117 41.608C13.017 41.62 14.289 41.572 15.477 41.524C16.617 41.464 18.069 41.344 19.089 41.212ZM34.5322 43.948V33.256H33.2002V43.948H34.5322ZM32.3962 43.456V33.46H31.0882V36.94H29.6482V38.08H31.0882V43.456H32.3962ZM30.8362 40.348C29.5402 39.568 28.7602 37.948 28.7602 35.872V34.288H27.4162V35.884C27.4162 38.164 26.5282 39.772 25.1722 40.648L26.0002 41.608C26.9962 41.008 27.8002 39.904 28.1002 38.788C28.3762 39.844 29.3362 40.912 30.0442 41.344L30.8362 40.348ZM44.243 43.816V40.204H41.327V39.304H45.479V38.176H35.819V39.304H39.923V40.204H37.055V43.816H44.243ZM36.911 35.536C36.911 36.724 38.255 37.612 40.655 37.612C43.055 37.612 44.387 36.724 44.387 35.536C44.387 34.348 43.055 33.484 40.643 33.484C38.255 33.484 36.911 34.348 36.911 35.536ZM38.363 35.548C38.363 34.948 39.203 34.564 40.643 34.564C42.107 34.564 42.947 34.948 42.947 35.548C42.947 36.124 42.059 36.52 40.643 36.52C39.203 36.52 38.363 36.124 38.363 35.548ZM42.863 42.724H38.447V41.272H42.863V42.724Z" fill="#245D3A"/>
<path d="M11 14.7451C11 21.5098 16.6 27 23.5 27C23.5 20.2353 17.91 14.7451 11 14.7451Z" fill="#245D3A"/>
<path d="M36 14.7451C29.1 14.7451 23.5 20.2353 23.5 27C30.41 27 36 21.5196 36 14.7451Z" fill="#245D3A"/>
<path d="M23.5 14.7451C27.0899 14.7451 30 11.892 30 8.37255C30 4.85309 27.0899 2 23.5 2C19.9101 2 17 4.85309 17 8.37255C17 11.892 19.9101 14.7451 23.5 14.7451Z" fill="#2E9167"/>
</svg>
