<svg width="46" height="46" viewBox="0 0 46 46" fill="none" xmlns="http://www.w3.org/2000/svg">
<path d="M21.3212 43.948V33.256H19.9172V43.948H21.3212ZM18.0332 34.372H13.0412V35.536H16.5212C16.3292 37.66 14.7332 39.892 12.3932 40.96L13.2572 42.016C16.5212 40.24 17.9492 37.6 18.0332 34.372ZM31.344 39.028V37.912H25.512V35.152H31.284V34.036H24.108V39.028H26.964V41.5H22.86V42.604H32.52V41.5H28.368V39.028H31.344Z" fill="#245D3A"/>
<path d="M22.47 2.00005C15.61 2.02005 10 8.04005 10 14.9001V24.8601C10 26.0401 10.96 27.0001 12.14 27.0001H22.1C28.96 27.0001 34.98 21.3901 35 14.5301C35.02 7.60005 29.39 1.98005 22.47 2.00005Z" fill="#2E9167"/>
<path d="M17.28 16.1101C18.3846 16.1101 19.28 15.2147 19.28 14.1101C19.28 13.0055 18.3846 12.1101 17.28 12.1101C16.1755 12.1101 15.28 13.0055 15.28 14.1101C15.28 15.2147 16.1755 16.1101 17.28 16.1101Z" fill="#245D3A"/>
<path d="M22.5 16.1101C23.6046 16.1101 24.5 15.2147 24.5 14.1101C24.5 13.0055 23.6046 12.1101 22.5 12.1101C21.3954 12.1101 20.5 13.0055 20.5 14.1101C20.5 15.2147 21.3954 16.1101 22.5 16.1101Z" fill="#245D3A"/>
<path d="M27.71 16.1101C28.8146 16.1101 29.71 15.2147 29.71 14.1101C29.71 13.0055 28.8146 12.1101 27.71 12.1101C26.6055 12.1101 25.71 13.0055 25.71 14.1101C25.71 15.2147 26.6055 16.1101 27.71 16.1101Z" fill="#245D3A"/>
</svg>
