<svg width="59" height="59" viewBox="0 0 59 59" fill="none" xmlns="http://www.w3.org/2000/svg">
<mask id="mask0_454_5162" style="mask-type:alpha" maskUnits="userSpaceOnUse" x="0" y="0" width="59" height="59">
<circle cx="29.5" cy="29.5" r="29.5" fill="#C4C4C4"/>
</mask>
<g mask="url(#mask0_454_5162)">
<rect width="59" height="59" fill="#CDE3D6"/>
<path fill-rule="evenodd" clip-rule="evenodd" d="M29.3974 3.3042L51.4706 37.2882H47.043L58.4197 54.6342H52.6775L62.0985 68.9122H-3.30371L6.11732 54.6342H0.375234L11.752 37.2882H7.32414L29.3974 3.3042Z" fill="#2E9167"/>
<circle cx="26.4323" cy="26.9044" r="0.944" fill="white"/>
<ellipse cx="32.568" cy="26.9044" rx="0.944001" ry="0.944" fill="white"/>
<path d="M25.6416 30.4827C25.5325 30.398 25.3755 30.4178 25.2908 30.5269C25.2061 30.6359 25.2259 30.793 25.335 30.8776L25.6416 30.4827ZM33.6656 30.8776C33.7747 30.793 33.7944 30.6359 33.7097 30.5269C33.6251 30.4178 33.468 30.398 33.359 30.4827L33.6656 30.8776ZM25.335 30.8776C25.9586 31.3619 27.2934 32.3462 29.5003 32.3462V31.8462C27.4591 31.8462 26.2337 30.9425 25.6416 30.4827L25.335 30.8776ZM29.5003 32.3462C31.7071 32.3462 33.042 31.3619 33.6656 30.8776L33.359 30.4827C32.7669 30.9425 31.5414 31.8462 29.5003 31.8462V32.3462Z" fill="white"/>
</g>
</svg>