<svg width="25" height="42" viewBox="0 0 25 42" fill="none" xmlns="http://www.w3.org/2000/svg">
<path d="M11.1412 41.84V31.352H10.2292V41.84H11.1412ZM8.05719 32.468H3.06519V33.236H7.08519C6.89319 35.6 5.33319 37.88 2.68119 39.044L3.20919 39.764C5.92119 38.48 8.00919 35.876 8.05719 32.468ZM22.424 40.508V39.74H18.128V37.172H21.356V36.416H15.02V32.996H21.296V32.24H14.096V37.172H17.216V39.74H12.956V40.508H22.424Z" fill="#929292"/>
<path d="M12.47 5.32156e-05C5.61 0.0200532 0 6.04005 0 12.9001V22.8601C0 24.0401 0.959999 25.0001 2.14 25.0001H12.1C18.96 25.0001 24.98 19.3901 25 12.5301C25.02 5.60005 19.39 -0.0199468 12.47 5.32156e-05Z" fill="#B7B7B7"/>
<path d="M7.28003 14.1101C8.3846 14.1101 9.28003 13.2147 9.28003 12.1101C9.28003 11.0055 8.3846 10.1101 7.28003 10.1101C6.17546 10.1101 5.28003 11.0055 5.28003 12.1101C5.28003 13.2147 6.17546 14.1101 7.28003 14.1101Z" fill="#929292"/>
<path d="M12.5 14.1101C13.6046 14.1101 14.5 13.2147 14.5 12.1101C14.5 11.0055 13.6046 10.1101 12.5 10.1101C11.3954 10.1101 10.5 11.0055 10.5 12.1101C10.5 13.2147 11.3954 14.1101 12.5 14.1101Z" fill="#929292"/>
<path d="M17.71 14.1101C18.8145 14.1101 19.71 13.2147 19.71 12.1101C19.71 11.0055 18.8145 10.1101 17.71 10.1101C16.6054 10.1101 15.71 11.0055 15.71 12.1101C15.71 13.2147 16.6054 14.1101 17.71 14.1101Z" fill="#929292"/>
</svg>
