<svg width="60" height="60" viewBox="0 0 60 60" fill="none" xmlns="http://www.w3.org/2000/svg">
<mask id="mask0_649_5866" style="mask-type:alpha" maskUnits="userSpaceOnUse" x="0" y="0" width="60" height="60">
<circle cx="30" cy="30" r="30" fill="#C4C4C4"/>
</mask>
<g mask="url(#mask0_649_5866)">
<rect width="60" height="60" fill="#B7B7B7"/>
<path fill-rule="evenodd" clip-rule="evenodd" d="M29.895 3.35986L52.3424 37.9199H47.8397L59.4092 55.5599H53.5697L63.1504 70.0799H-3.36035L6.22036 55.5599H0.380949L11.9505 37.9199H7.44763L29.895 3.35986Z" fill="#929292"/>
<circle cx="26.8799" cy="27.3599" r="0.96" fill="white"/>
<ellipse cx="33.1202" cy="27.3599" rx="0.959999" ry="0.96" fill="white"/>
<path d="M26.0732 31.0022C25.9642 30.9176 25.8071 30.9373 25.7225 31.0464C25.6378 31.1554 25.6575 31.3125 25.7666 31.3972L26.0732 31.0022ZM34.2332 31.3972C34.3423 31.3125 34.3621 31.1554 34.2774 31.0464C34.1927 30.9373 34.0357 30.9176 33.9266 31.0022L34.2332 31.3972ZM25.7666 31.3972C26.4006 31.8894 27.7571 32.8897 29.9999 32.8897V32.3897C27.9228 32.3897 26.6757 31.47 26.0732 31.0022L25.7666 31.3972ZM29.9999 32.8897C32.2428 32.8897 33.5993 31.8894 34.2332 31.3972L33.9266 31.0022C33.3242 31.47 32.0771 32.3897 29.9999 32.3897V32.8897Z" fill="white"/>
</g>
</svg>
