<svg width="18" height="18" viewBox="0 0 18 18" fill="none" xmlns="http://www.w3.org/2000/svg">
<path d="M18 10.8029V7.19712H15.4543C15.1064 7.19712 14.7981 6.98257 14.6647 6.66166C14.6629 6.65805 14.662 6.65445 14.6602 6.65084C14.5258 6.32903 14.5916 5.95853 14.8386 5.71154L16.6388 3.91136L14.0886 1.36118L12.2885 3.16136C12.0415 3.40835 11.671 3.47416 11.3492 3.33984C11.3456 3.33804 11.3419 3.33714 11.3383 3.33534C11.0165 3.20192 10.8029 2.89363 10.8029 2.54567V0H7.19711V2.54567C7.19711 2.89363 6.98257 3.20192 6.66166 3.33534C6.65805 3.33714 6.65445 3.33804 6.65084 3.33984C6.32903 3.47416 5.95853 3.40835 5.71154 3.16136L3.91046 1.36118L1.36118 3.91046L3.16136 5.71064C3.40835 5.95763 3.47416 6.32813 3.33984 6.64994C3.33804 6.65355 3.33714 6.65715 3.33534 6.66076C3.20192 6.98257 2.89363 7.19622 2.54567 7.19622H0V10.802H2.54567C2.89363 10.802 3.20192 11.0165 3.33534 11.3374C3.33714 11.341 3.33804 11.3447 3.33984 11.3483C3.47416 11.6701 3.40835 12.0406 3.16136 12.2876L1.36118 14.0886L3.91136 16.6379L5.71154 14.8377C5.95853 14.5907 6.32903 14.5249 6.65084 14.6593C6.65445 14.6611 6.65805 14.662 6.66166 14.6638C6.98347 14.7972 7.19711 15.1055 7.19711 15.4534V17.9991H10.8029V15.4534C10.8029 15.1055 11.0174 14.7972 11.3383 14.6638C11.3419 14.662 11.3456 14.6611 11.3492 14.6593C11.671 14.5249 12.0415 14.5907 12.2885 14.8377L14.0886 16.6379L16.6388 14.0886L14.8386 12.2885C14.5916 12.0415 14.5258 11.671 14.6602 11.3492C14.662 11.3456 14.6629 11.3419 14.6647 11.3383C14.7981 11.0165 15.1064 10.8029 15.4543 10.8029H18ZM11.5213 9C11.5213 10.3909 10.39 11.5213 9 11.5213C7.60998 11.5213 6.47867 10.39 6.47867 9C6.47867 7.60998 7.60998 6.47867 9 6.47867C10.39 6.47867 11.5213 7.60908 11.5213 9Z" fill="#2E9167"/>
</svg>
