<svg width="130" height="114" viewBox="0 0 130 114" fill="none" xmlns="http://www.w3.org/2000/svg">
<g clip-path="url(#clip0_271_2723)">
<path opacity="0.4" d="M62.1838 1.62154L0.438247 108.426C-0.812846 110.591 0.750208 113.294 3.2524 113.294H126.743C129.246 113.294 130.809 110.591 129.558 108.426L67.8121 1.62154C66.561 -0.543117 63.4349 -0.543117 62.1838 1.62154Z" fill="white"/>
<path opacity="0.4" d="M79.0334 30.77L34.137 108.428C32.8859 110.593 34.4489 113.296 36.9511 113.296H126.744C129.246 113.296 130.809 110.593 129.558 108.428L84.6617 30.77C83.4106 28.6053 80.2845 28.6053 79.0334 30.77Z" fill="white"/>
<path opacity="0.4" d="M28.9084 59.1821L0.438736 108.427C-0.812358 110.592 0.750697 113.295 3.25288 113.295H60.1923C62.6945 113.295 64.2575 110.592 63.0064 108.427L34.5367 59.1821C33.2889 57.0174 30.1595 57.0174 28.9084 59.1821Z" fill="white"/>
</g>
<g clip-path="url(#clip1_271_2723)">
<path d="M122.11 15.9819L122.314 16.0602V15.8419V15.1696V15.0725L122.225 15.0327C119.068 13.616 116.243 9.46506 116.243 5.15272V0.337719V0.187719H116.093H115.293H115.143V0.337719V5.15272C115.143 9.47996 112.318 13.616 109.161 15.0327L109.072 15.0725V15.1696V15.8419V16.0605L109.276 15.9818C112.141 14.8763 114.72 11.7456 115.691 8.36105C116.664 11.7577 119.234 14.8762 122.11 15.9819ZM124.044 17.5771V17.7286L124.195 17.7271L124.94 17.7195L125.089 17.718V17.5695V-0.0078125V-0.157813H124.939H124.194H124.044V-0.0078125V7.54543H119.754H119.604V7.69543V8.37148V8.52148H119.754H124.044V17.5771ZM127.66 17.9151V18.0666L127.811 18.0651L128.556 18.0576L128.705 18.0561V17.9076V-0.0078125V-0.157813H128.555H127.81H127.66V-0.0078125V17.9151Z" fill="#CDE3D6" stroke="#CDE3D6" stroke-width="0.3"/>
<path d="M111.051 38.9034H110.901V39.0534V42.8656C110.901 43.5912 111.061 44.1003 111.43 44.4207C111.793 44.7363 112.326 44.8372 112.991 44.8372H128.101H128.251V44.6872V39.0534V38.9034H128.101H120.128V36.4579H129.996H130.146V36.3079V35.6318V35.4818H129.996H109.2H109.05V35.6318V36.3079V36.4579H109.2H119.068V38.9034H111.051ZM110.871 30.2572C110.871 30.9088 111.004 31.4623 111.268 31.9245C111.531 32.387 111.921 32.749 112.419 33.025C113.409 33.5738 114.838 33.7875 116.607 33.7875H122.589C124.362 33.7875 125.791 33.5738 126.78 33.025C127.278 32.7489 127.666 32.3869 127.93 31.9243C128.192 31.4622 128.325 30.9088 128.325 30.2572C128.325 29.6056 128.192 29.0521 127.928 28.59C127.665 28.1274 127.275 27.7655 126.777 27.4894C125.787 26.9407 124.358 26.727 122.589 26.727H116.607C114.834 26.727 113.406 26.9407 112.416 27.4894C111.918 27.7655 111.53 28.1275 111.267 28.5901C111.004 29.0522 110.871 29.6057 110.871 30.2572ZM111.938 30.261C111.938 29.7486 112.048 29.3414 112.25 29.0165C112.451 28.6916 112.75 28.4382 113.147 28.244C113.946 27.8523 115.121 27.7105 116.607 27.7105H122.589C124.081 27.7105 125.256 27.8523 126.054 28.244C126.449 28.4381 126.747 28.6915 126.948 29.0163C127.148 29.3412 127.258 29.7485 127.258 30.261C127.258 30.7733 127.148 31.1805 126.946 31.5055C126.745 31.8303 126.446 32.0838 126.05 32.2779C125.25 32.6697 124.076 32.8114 122.589 32.8114H116.607C115.115 32.8114 113.94 32.6696 113.143 32.278C112.747 32.0839 112.449 31.8305 112.248 31.5057C112.048 31.1807 111.938 30.7735 111.938 30.261ZM111.961 42.8656V39.8419H127.191V43.8611H112.991C112.597 43.8611 112.35 43.7936 112.199 43.6557C112.051 43.5208 111.961 43.2868 111.961 42.8656Z" fill="#CDE3D6" stroke="#CDE3D6" stroke-width="0.3"/>
</g>
<defs>
<clipPath id="clip0_271_2723">
<rect width="130" height="113.296" fill="white"/>
</clipPath>
<clipPath id="clip1_271_2723">
<rect width="20.8" height="44.6946" fill="white" transform="translate(109.2)"/>
</clipPath>
</defs>
</svg>
