<svg width="46" height="46" viewBox="0 0 46 46" fill="none" xmlns="http://www.w3.org/2000/svg">
<path d="M19.1996 40.096V43.456H20.5076V33.46H19.1996V35.62H17.9156C17.5676 34.708 16.9316 34.06 15.9596 34.06C14.3036 34.06 13.6556 35.932 13.6556 37.876C13.6556 39.844 14.3036 41.728 15.9596 41.728C16.9556 41.728 17.5916 41.056 17.9396 40.096H19.1996ZM22.6436 43.948V33.256H21.3116V43.948H22.6436ZM16.9796 37.888C16.9796 39.316 16.6916 40.48 15.9716 40.48C15.2756 40.48 14.9756 39.316 14.9756 37.888C14.9756 36.46 15.2756 35.284 15.9716 35.284C16.6916 35.284 16.9796 36.46 16.9796 37.888ZM18.2876 37.888C18.2876 37.504 18.2636 37.12 18.2036 36.748H19.1996V38.968H18.2036C18.2636 38.62 18.2876 38.26 18.2876 37.888ZM33.0264 43.948V33.256H31.6824V37.444H30.8184V33.448H29.4984V43.456H30.8184V38.56H31.6824V43.948H33.0264ZM28.4544 41.176V34.348H27.0624V36.82H25.5744V34.36H24.1824V41.176H28.4544ZM27.0624 40.072H25.5744V37.9H27.0624V40.072Z" fill="#245D3A"/>
<path d="M32.3094 10.8297L13.9063 0.259711C12.609 -0.480289 11 0.449711 11 1.92971V23.0697C11 24.5597 12.6191 25.4797 13.9063 24.7397L32.3094 14.1697C33.6067 13.4297 33.6067 11.5697 32.3094 10.8297Z" fill="#2E9167"/>
<path d="M34.401 8.97971H28.4376V3.16971C28.4376 2.28971 27.7236 1.57971 26.8386 1.57971C25.9537 1.57971 25.2397 2.28971 25.2397 3.16971V8.97971H19.2763C18.3913 8.97971 17.6773 9.68971 17.6773 10.5697C17.6773 11.4497 18.3913 12.1597 19.2763 12.1597H25.2397V22.5197C25.2397 23.3997 25.9537 24.1097 26.8386 24.1097C27.7236 24.1097 28.4376 23.3997 28.4376 22.5197V12.1497H34.401C35.286 12.1497 36 11.4397 36 10.5597C35.9899 9.68971 35.2759 8.97971 34.401 8.97971Z" fill="#245D3A"/>
</svg>
