<svg width="26" height="44" viewBox="0 0 26 44" fill="none" xmlns="http://www.w3.org/2000/svg">
<path d="M5.11433 34.203C3.57833 34.203 2.79833 35.715 2.79833 37.851C2.79833 40.011 3.57833 41.511 5.11433 41.511C6.09833 41.511 6.75833 40.899 7.11833 39.891H8.61833V43.311H9.50633V33.555H8.61833V35.847H7.11833C6.77033 34.827 6.09833 34.203 5.11433 34.203ZM6.54233 37.851C6.54233 39.627 5.99033 40.719 5.11433 40.719C4.22633 40.719 3.68633 39.627 3.68633 37.851C3.68633 36.111 4.22633 34.995 5.11433 34.995C5.99033 34.995 6.54233 36.111 6.54233 37.851ZM11.5583 43.839V33.351H10.6583V43.839H11.5583ZM8.61833 36.615V39.123H7.31033C7.38233 38.751 7.43033 38.319 7.43033 37.851C7.43033 37.419 7.39433 36.999 7.32233 36.615H8.61833ZM17.6331 41.211V34.395H16.7331V36.963H14.3451V34.395H13.4451V41.211H17.6331ZM21.9411 43.839V33.351H21.0411V37.659H19.7571V33.603H18.8691V43.311H19.7571V38.427H21.0411V43.839H21.9411ZM16.7331 40.443H14.3451V37.719H16.7331V40.443Z" fill="#929292"/>
<path d="M21.4295 10.8294L2.92267 0.259704C1.61808 -0.480274 0 0.449698 0 1.92965V23.069C0 24.559 1.6282 25.4789 2.92267 24.739L21.4295 14.1693C22.7341 13.4293 22.7341 11.5694 21.4295 10.8294Z" fill="#B7B7B7"/>
<path d="M23.5328 8.97949H17.5358V3.16966C17.5358 2.28969 16.8178 1.57971 15.9278 1.57971C15.0379 1.57971 14.3198 2.28969 14.3198 3.16966V8.97949H8.32281C7.43287 8.97949 6.71484 9.68947 6.71484 10.5694C6.71484 11.4494 7.43287 12.1594 8.32281 12.1594H14.3198V22.5191C14.3198 23.3991 15.0379 24.109 15.9278 24.109C16.8178 24.109 17.5358 23.3991 17.5358 22.5191V12.1494H23.5328C24.4228 12.1494 25.1408 11.4394 25.1408 10.5594C25.1307 9.68947 24.4127 8.97949 23.5328 8.97949Z" fill="#929292"/>
</svg>
