<svg width="126" height="110" viewBox="0 0 126 110" fill="none" xmlns="http://www.w3.org/2000/svg">
<g clip-path="url(#clip0_73:679)">
<path opacity="0.4" d="M59.7919 2.56072L0.421185 105.316C-0.781789 107.399 0.721148 110 3.1271 110H121.868C124.274 110 125.777 107.399 124.574 105.316L65.2037 2.56072C64.0007 0.478133 60.9949 0.478133 59.7919 2.56072Z" fill="#2E9167"/>
<path opacity="0.4" d="M75.9936 30.6027L32.824 105.317C31.621 107.399 33.124 110 35.5299 110H121.869C124.275 110 125.778 107.399 124.575 105.317L81.4054 30.6027C80.2025 28.5201 77.1966 28.5201 75.9936 30.6027Z" fill="#2E9167"/>
<path opacity="0.4" d="M27.7965 57.9384L0.421796 105.316C-0.781179 107.399 0.721758 110 3.12771 110H57.8771C60.2831 110 61.786 107.399 60.583 105.316L33.2083 57.9384C32.0085 55.8558 28.9995 55.8558 27.7965 57.9384Z" fill="#2E9167"/>
</g>
<path d="M117.374 16.8287L117.716 16.9631V16.596V15.9342V15.7739L117.57 15.707C116.079 15.0222 114.654 13.6712 113.601 11.9531C112.549 10.2367 111.878 8.17106 111.878 6.07301V1.33284V1.08284H111.628H110.859H110.609V1.33284V6.07301C110.609 10.2982 107.912 14.3311 104.917 15.707L104.771 15.7739V15.9342V16.596V16.9636L105.113 16.8285C107.809 15.7634 110.232 12.8249 111.242 9.60258C112.252 12.8353 114.667 15.7632 117.374 16.8287ZM119.167 18.3043V18.5569L119.42 18.5543L120.136 18.5469L120.383 18.5443V18.2969V0.992676V0.742676H120.133H119.417H119.167V0.992676V8.32621H115.149H114.899V8.57621V9.24175V9.49175H115.149H119.167V18.3043ZM122.644 18.637V18.8896L122.897 18.887L123.613 18.8796L123.861 18.8771V18.6297V0.992676V0.742676H123.611H122.894H122.644V0.992676V18.637Z" fill="#2E9167" stroke="#2E9167" stroke-width="0.5"/>
<path d="M106.78 39.0562H106.53V39.3062V43.159C106.53 43.9008 106.685 44.4489 107.071 44.8009C107.451 45.1479 107.999 45.25 108.646 45.25H123.177H123.427V45V39.3062V39.0562H123.177H115.615V36.7814H125H125.25V36.5314V35.8482V35.5982H125H105H104.75V35.8482V36.5314V36.7814H105H114.385V39.0562H106.78ZM106.501 30.4163C106.501 31.0865 106.632 31.6617 106.894 32.1454C107.157 32.6304 107.546 33.0093 108.04 33.297C109.018 33.8667 110.417 34.0826 112.124 34.0826H117.876C119.587 34.0826 120.985 33.8667 121.963 33.297C122.457 33.0092 122.844 32.6302 123.107 32.1452C123.369 31.6615 123.499 31.0863 123.499 30.4163C123.499 29.7461 123.368 29.1709 123.106 28.6871C122.843 28.2022 122.454 27.8233 121.96 27.5355C120.982 26.9659 119.583 26.75 117.876 26.75H112.124C110.413 26.75 109.015 26.9659 108.037 27.5356C107.543 27.8234 107.156 28.2024 106.893 28.6873C106.631 29.1711 106.501 29.7462 106.501 30.4163ZM107.739 30.4201C107.739 29.9145 107.843 29.5201 108.026 29.2095C108.209 28.8997 108.481 28.6562 108.847 28.4678C109.59 28.0848 110.696 27.9409 112.124 27.9409H117.876C119.309 27.9409 120.415 28.0848 121.157 28.4677C121.522 28.656 121.793 28.8993 121.975 29.2091C122.158 29.5198 122.261 29.9143 122.261 30.4201C122.261 30.9256 122.157 31.32 121.974 31.6307C121.791 31.9405 121.519 32.184 121.153 32.3724C120.41 32.7554 119.304 32.8993 117.876 32.8993H112.124C110.691 32.8993 109.585 32.7554 108.843 32.3725C108.478 32.1842 108.206 31.9408 108.025 31.6311C107.842 31.3204 107.739 30.9259 107.739 30.4201ZM107.761 43.159V40.2015H122.196V44.0667H108.646C108.276 44.0667 108.075 43.9993 107.96 43.889C107.847 43.7808 107.761 43.5769 107.761 43.159Z" fill="#2E9167" stroke="#2E9167" stroke-width="0.5"/>
<defs>
<clipPath id="clip0_73:679">
<rect width="125" height="109" fill="white" transform="translate(0 1)"/>
</clipPath>
</defs>
</svg>
