<svg width="139" height="171" viewBox="0 0 139 171" fill="none" xmlns="http://www.w3.org/2000/svg">
<g clip-path="url(#clip0_205_1521)">
<path d="M116.016 9.58393C108.877 6.91701 100.91 10.5503 98.2435 17.6897C95.5765 24.8291 99.2098 32.7954 106.349 35.4623L107.11 35.7467L105.404 40.3134C114.133 39.5149 121.563 34.2067 124.122 27.3566C126.789 20.2172 123.156 12.2509 116.016 9.58393ZM109.293 32.2253L106.249 31.0881L107.386 28.0435L110.43 29.1808L109.293 32.2253ZM111.283 26.8974L108.239 25.7601C110.087 20.8128 114.512 22.8993 115.649 19.8548C116.274 18.1803 115.416 16.2985 113.742 15.673C112.067 15.0475 110.185 15.9057 109.56 17.5802L106.515 16.4429C107.772 13.0787 111.515 11.3718 114.879 12.6285C118.243 13.8851 119.95 17.6279 118.693 20.992C117.272 24.7977 112.563 23.4723 111.283 26.8974Z" fill="#2E9167"/>
</g>
<path d="M131.059 57.9995C131.026 55.7884 129.121 54.0285 126.799 54.0638C123.649 54.1116 119.061 58.1818 119.061 58.1818C119.061 58.1818 123.771 62.1107 126.921 62.0629C129.242 62.0276 131.093 60.2107 131.059 57.9995Z" fill="#90C79C"/>
<path fill-rule="evenodd" clip-rule="evenodd" d="M64 136H54V161H52C47.5817 161 44 164.582 44 169V171H54H64V161V136Z" fill="#929292"/>
<path fill-rule="evenodd" clip-rule="evenodd" d="M74 136H84V161H86C90.4183 161 94 164.582 94 169V171H84H74V161V136Z" fill="#929292"/>
<path fill-rule="evenodd" clip-rule="evenodd" d="M69.282 12L116.047 84H106.667L130.77 120.75H118.604L138.564 151H7.62939e-06L19.9598 120.75H7.79424L31.8975 84H22.5167L69.282 12Z" fill="#2E9167"/>
<circle cx="63" cy="62" r="2" fill="white"/>
<circle cx="76" cy="62" r="2" fill="white"/>
<path d="M77.6934 73.3949C77.9115 73.5643 78.2256 73.5248 78.3949 73.3066C78.5643 73.0885 78.5248 72.7744 78.3066 72.6051L77.6934 73.3949ZM60.6934 72.6051C60.4752 72.7744 60.4357 73.0885 60.6051 73.3067C60.7744 73.5248 61.0885 73.5643 61.3066 73.3949L60.6934 72.6051ZM78.3066 72.6051C76.9872 71.5806 74.1657 69.5 69.5 69.5L69.5 70.5C73.8343 70.5 76.437 72.4194 77.6934 73.3949L78.3066 72.6051ZM69.5 69.5C64.8343 69.5 62.0128 71.5806 60.6934 72.6051L61.3066 73.3949C62.563 72.4194 65.1657 70.5 69.5 70.5L69.5 69.5Z" fill="white"/>
<path d="M119.361 47.3638C118.647 45.9615 116.88 45.4331 115.407 46.1821C113.41 47.1981 111.752 51.2343 111.752 51.2343C111.752 51.2343 115.99 52.2709 117.988 51.2548C119.46 50.5059 120.074 48.766 119.361 47.3638Z" fill="#90C79C"/>
<path d="M123.802 74.6197C125.672 72.1465 125.084 68.5583 122.487 66.595C118.965 63.9317 110.382 64.4734 110.382 64.4734C110.382 64.4734 112.2 72.8785 115.723 75.5419C118.32 77.5052 121.933 77.0929 123.802 74.6197Z" fill="#90C79C"/>
<defs>
<clipPath id="clip0_205_1521">
<rect width="39" height="39" fill="white" transform="translate(99.6473) rotate(20.4832)"/>
</clipPath>
</defs>
</svg>
