<svg width="125" height="109" viewBox="0 0 125 109" fill="none" xmlns="http://www.w3.org/2000/svg">
<g clip-path="url(#clip0_105_8591)">
<path opacity="0.4" d="M59.7919 1.56084L0.421216 104.316C-0.781759 106.399 0.721178 109 3.12713 109H121.869C124.274 109 125.777 106.399 124.574 104.316L65.2037 1.56084C64.0008 -0.521745 60.9949 -0.521745 59.7919 1.56084Z" fill="white"/>
<path opacity="0.4" d="M75.9936 29.6027L32.824 104.317C31.6211 106.399 33.124 109 35.53 109H121.869C124.275 109 125.778 106.399 124.575 104.317L81.4055 29.6027C80.2025 27.5201 77.1966 27.5201 75.9936 29.6027Z" fill="white"/>
<path opacity="0.4" d="M27.7965 56.9385L0.421841 104.317C-0.781133 106.399 0.721804 109 3.12775 109H57.8772C60.2831 109 61.7861 106.399 60.5831 104.317L33.2084 56.9385C32.0085 54.8559 28.9995 54.8559 27.7965 56.9385Z" fill="white"/>
</g>
<g clip-path="url(#clip1_105_8591)">
<path d="M117.412 15.3815L117.616 15.46V15.2415V14.5947V14.4976L117.527 14.4579C114.493 13.0959 111.778 9.10444 111.778 4.95767V0.325229V0.175229H111.628H110.859H110.709V0.325229V4.95767C110.709 9.11878 107.994 13.0958 104.96 14.4579L104.871 14.4976V14.5947V15.2415V15.4603L105.076 15.3815C107.826 14.3193 110.304 11.3154 111.242 8.06522C112.181 11.327 114.65 14.3191 117.412 15.3815ZM119.267 16.911V17.0625L119.419 17.0609L120.135 17.0537L120.283 17.0522V16.9037V-0.00720215V-0.157202H120.133H119.417H119.267V-0.00720215V7.25398H115.149H114.999V7.40398V8.05439V8.20439H115.149H119.267V16.911ZM122.744 17.2361V17.3877L122.896 17.3861L123.612 17.3789L123.761 17.3774V17.2289V-0.00720215V-0.157202H123.611H122.894H122.744V-0.00720215V17.2361Z" fill="#CDE3D6" stroke="#CDE3D6" stroke-width="0.3"/>
<path d="M106.78 37.4226H106.63V37.5726V41.2402C106.63 41.9389 106.784 42.4308 107.14 42.7406C107.492 43.0457 108.006 43.1427 108.646 43.1427H123.174H123.324V42.9927V37.5726V37.4226H123.174H115.514V35.0811H124.996H125.146V34.9311V34.2807V34.1307H124.996H105H104.85V34.2807V34.9311V35.0811H105H114.483V37.4226H106.78ZM106.601 29.1099C106.601 29.7376 106.729 30.2711 106.983 30.7167C107.237 31.1628 107.613 31.5117 108.092 31.7777C109.046 32.3064 110.421 32.512 112.123 32.512H117.874C119.579 32.512 120.954 32.3064 121.907 31.7777C122.386 31.5116 122.761 31.1627 123.014 30.7166C123.268 30.271 123.395 29.7375 123.395 29.1099C123.395 28.4822 123.267 27.9487 123.013 27.5031C122.759 27.057 122.384 26.7081 121.904 26.4421C120.95 25.9134 119.576 25.7078 117.874 25.7078H112.123C110.417 25.7078 109.042 25.9134 108.09 26.4421C107.61 26.7081 107.236 27.0571 106.982 27.5032C106.729 27.9488 106.601 28.4823 106.601 29.1099ZM107.639 29.1135C107.639 28.6214 107.744 28.2307 107.938 27.9192C108.13 27.6077 108.417 27.3645 108.797 27.1781C109.565 26.8019 110.693 26.6654 112.123 26.6654H117.874C119.309 26.6654 120.437 26.8019 121.203 27.1781C121.582 27.3644 121.868 27.6075 122.06 27.9189C122.253 28.2305 122.358 28.6212 122.358 29.1135C122.358 29.6056 122.252 29.9963 122.059 30.3079C121.866 30.6193 121.579 30.8625 121.199 31.0489C120.432 31.4252 119.303 31.5616 117.874 31.5616H112.123C110.688 31.5616 109.559 31.4251 108.794 31.0489C108.414 30.8626 108.128 30.6195 107.936 30.3081C107.744 29.9965 107.639 29.6058 107.639 29.1135ZM107.66 41.2402V38.3369H122.293V42.1923H108.646C108.267 42.1923 108.031 42.1274 107.888 41.9962C107.747 41.868 107.66 41.6449 107.66 41.2402Z" fill="#CDE3D6" stroke="#CDE3D6" stroke-width="0.3"/>
</g>
<defs>
<clipPath id="clip0_105_8591">
<rect width="125" height="109" fill="white"/>
</clipPath>
<clipPath id="clip1_105_8591">
<rect width="20" height="43" fill="white" transform="translate(105)"/>
</clipPath>
</defs>
</svg>
