<svg width="367" height="258" viewBox="0 0 367 258" fill="none" xmlns="http://www.w3.org/2000/svg">
<ellipse cx="184" cy="205" rx="130" ry="10" fill="#CDE3D6"/>
<path fill-rule="evenodd" clip-rule="evenodd" d="M224.517 168.953H214.752V194.548H212.988C208.57 194.548 204.988 198.13 204.988 202.548V204.786H224.517V194.548H224.517V168.953Z" fill="#7C7C7C"/>
<path fill-rule="evenodd" clip-rule="evenodd" d="M234.282 168.953H244.047V194.548H245.812C250.23 194.548 253.812 198.13 253.812 202.548V204.786H234.282V194.548H234.282V168.953Z" fill="#7C7C7C"/>
<path fill-rule="evenodd" clip-rule="evenodd" d="M230.652 43L276.317 116.289H267.157L290.693 153.696H278.814L298.304 184.488H163L182.49 153.696H170.611L194.147 116.289H184.987L230.652 43Z" fill="#2E9167"/>
<ellipse cx="223.541" cy="93.1907" rx="1.95294" ry="2.04763" fill="white"/>
<ellipse cx="236.235" cy="93.1907" rx="1.95294" ry="2.04763" fill="white"/>
<path d="M237.873 104.84C238.087 105.014 238.402 104.982 238.576 104.768C238.751 104.554 238.718 104.239 238.504 104.065L237.873 104.84ZM221.273 104.065C221.059 104.239 221.026 104.554 221.201 104.768C221.375 104.982 221.69 105.014 221.904 104.84L221.273 104.065ZM238.504 104.065C237.217 103.017 234.456 100.881 229.888 100.881L229.888 101.881C234.109 101.881 236.645 103.84 237.873 104.84L238.504 104.065ZM229.888 100.881C225.321 100.881 222.56 103.017 221.273 104.065L221.904 104.84C223.132 103.84 225.668 101.881 229.888 101.881L229.888 100.881Z" fill="white"/>
<path fill-rule="evenodd" clip-rule="evenodd" d="M99.8929 101.125C88.354 101.125 79 110.479 79 122.018V144.683H99.8929H120.786H153.17V101.125H99.8929Z" fill="url(#paint0_linear_1046_8118)"/>
<path d="M131.232 122.018C131.232 110.479 140.586 101.125 152.125 101.125V101.125C163.664 101.125 173.018 110.479 173.018 122.018V144.683H131.232V122.018Z" fill="#ACACAC"/>
<path d="M132.277 122.062C132.277 111.1 141.163 102.213 152.125 102.213V102.213C163.087 102.213 171.973 111.1 171.973 122.062V143.594H132.277V122.062Z" fill="#767676"/>
<rect x="113.948" y="144.683" width="10.4464" height="59.8929" fill="#7C7C7C"/>
<path d="M89.0322 126.23H91.5522C91.9442 126.23 92.3162 126.27 92.6682 126.35C93.0282 126.422 93.3442 126.55 93.6162 126.734C93.8962 126.91 94.1162 127.15 94.2762 127.454C94.4442 127.75 94.5282 128.118 94.5282 128.558C94.5282 129.022 94.4402 129.406 94.2642 129.71C94.0882 130.014 93.8602 130.254 93.5802 130.43C93.3082 130.606 93.0082 130.73 92.6802 130.802C92.3522 130.874 92.0402 130.91 91.7442 130.91H90.0402V134.726H89.0322V126.23ZM90.0402 129.974H91.7442C92.2482 129.974 92.6562 129.862 92.9682 129.638C93.2882 129.406 93.4482 129.05 93.4482 128.57C93.4482 128.09 93.2882 127.738 92.9682 127.514C92.6562 127.282 92.2482 127.166 91.7442 127.166H90.0402V129.974ZM101.293 134.942C100.645 134.942 100.049 134.83 99.5054 134.606C98.9694 134.382 98.5014 134.074 98.1014 133.682C97.7094 133.282 97.4014 132.81 97.1774 132.266C96.9614 131.714 96.8534 131.118 96.8534 130.478C96.8534 129.838 96.9614 129.246 97.1774 128.702C97.4014 128.15 97.7094 127.678 98.1014 127.286C98.5014 126.886 98.9694 126.574 99.5054 126.35C100.049 126.126 100.645 126.014 101.293 126.014C101.941 126.014 102.533 126.126 103.069 126.35C103.613 126.574 104.081 126.886 104.473 127.286C104.873 127.678 105.181 128.15 105.397 128.702C105.621 129.246 105.733 129.838 105.733 130.478C105.733 131.118 105.621 131.714 105.397 132.266C105.181 132.81 104.873 133.282 104.473 133.682C104.081 134.074 103.613 134.382 103.069 134.606C102.533 134.83 101.941 134.942 101.293 134.942ZM101.293 134.006C101.789 134.006 102.241 133.914 102.649 133.73C103.065 133.546 103.421 133.294 103.717 132.974C104.013 132.654 104.241 132.282 104.401 131.858C104.569 131.426 104.653 130.966 104.653 130.478C104.653 129.99 104.569 129.534 104.401 129.11C104.241 128.678 104.013 128.302 103.717 127.982C103.421 127.662 103.065 127.41 102.649 127.226C102.241 127.042 101.789 126.95 101.293 126.95C100.797 126.95 100.341 127.042 99.9254 127.226C99.5174 127.41 99.1654 127.662 98.8694 127.982C98.5734 128.302 98.3414 128.678 98.1734 129.11C98.0134 129.534 97.9334 129.99 97.9334 130.478C97.9334 130.966 98.0134 131.426 98.1734 131.858C98.3414 132.282 98.5734 132.654 98.8694 132.974C99.1654 133.294 99.5174 133.546 99.9254 133.73C100.341 133.914 100.797 134.006 101.293 134.006ZM112.585 127.73C112.417 127.458 112.193 127.262 111.913 127.142C111.633 127.014 111.341 126.95 111.037 126.95C110.813 126.95 110.593 126.978 110.377 127.034C110.161 127.09 109.965 127.174 109.789 127.286C109.621 127.398 109.485 127.546 109.381 127.73C109.277 127.914 109.225 128.13 109.225 128.378C109.225 128.57 109.253 128.742 109.309 128.894C109.373 129.038 109.473 129.17 109.609 129.29C109.745 129.41 109.929 129.522 110.161 129.626C110.393 129.73 110.677 129.834 111.013 129.938C111.341 130.042 111.657 130.154 111.961 130.274C112.273 130.394 112.545 130.546 112.777 130.73C113.017 130.914 113.205 131.146 113.341 131.426C113.485 131.698 113.557 132.042 113.557 132.458C113.557 132.882 113.473 133.25 113.305 133.562C113.137 133.874 112.913 134.134 112.633 134.342C112.361 134.542 112.045 134.69 111.685 134.786C111.325 134.89 110.953 134.942 110.569 134.942C110.321 134.942 110.073 134.918 109.825 134.87C109.577 134.83 109.337 134.766 109.105 134.678C108.881 134.582 108.669 134.462 108.469 134.318C108.269 134.166 108.097 133.982 107.953 133.766L108.817 133.058C109.001 133.37 109.257 133.606 109.585 133.766C109.913 133.926 110.261 134.006 110.629 134.006C110.845 134.006 111.061 133.974 111.277 133.91C111.501 133.846 111.701 133.754 111.877 133.634C112.053 133.506 112.197 133.35 112.309 133.166C112.421 132.982 112.477 132.77 112.477 132.53C112.477 132.266 112.433 132.054 112.345 131.894C112.257 131.726 112.121 131.582 111.937 131.462C111.753 131.342 111.521 131.234 111.241 131.138C110.961 131.042 110.633 130.93 110.257 130.802C109.953 130.706 109.673 130.598 109.417 130.478C109.161 130.35 108.937 130.198 108.745 130.022C108.561 129.838 108.413 129.622 108.301 129.374C108.197 129.118 108.145 128.814 108.145 128.462C108.145 128.054 108.225 127.698 108.385 127.394C108.545 127.09 108.761 126.838 109.033 126.638C109.305 126.43 109.613 126.274 109.957 126.17C110.301 126.066 110.661 126.014 111.037 126.014C111.517 126.014 111.953 126.09 112.345 126.242C112.745 126.386 113.101 126.642 113.413 127.01L112.585 127.73ZM122.121 127.166H119.313V134.726H118.305V127.166H115.497V126.23H122.121V127.166Z" fill="white"/>
<rect x="131.232" y="142.505" width="63.7232" height="2.17792" fill="#ACACAC"/>
<path fill-rule="evenodd" clip-rule="evenodd" d="M127.054 82.6123H115.562L118.942 86.4877L115.562 90.3631H127.054V82.6123Z" fill="#ACACAC"/>
<rect x="127.054" y="82.6123" width="2.08929" height="35.9357" fill="#D2D2D2"/>
<ellipse cx="128.098" cy="118.548" rx="2.08929" ry="2.17792" fill="#7C7C7C"/>
<defs>
<linearGradient id="paint0_linear_1046_8118" x1="116.085" y1="101.125" x2="116.085" y2="144.683" gradientUnits="userSpaceOnUse">
<stop stop-color="#ACACAC"/>
<stop offset="1" stop-color="#918E8E"/>
</linearGradient>
</defs>
</svg>
