<svg width="180" height="180" viewBox="0 0 180 180" fill="none" xmlns="http://www.w3.org/2000/svg">
<mask id="mask0_208_4115" style="mask-type:alpha" maskUnits="userSpaceOnUse" x="0" y="0" width="180" height="180">
<circle cx="90" cy="90" r="90" fill="#CDE3D6"/>
</mask>
<g mask="url(#mask0_208_4115)">
<rect x="-10" y="-3" width="202" height="193" fill="#CDE3D6"/>
<path fill-rule="evenodd" clip-rule="evenodd" d="M165.45 123.062H158.325V140.875H158.325C154.39 140.875 151.2 144.065 151.2 148H165.45V148H165.45V123.062Z" fill="#929292"/>
<path fill-rule="evenodd" clip-rule="evenodd" d="M172.575 123.062H179.7V140.875H179.7C183.635 140.875 186.825 144.065 186.825 148H172.575V148H172.575V123.062Z" fill="#929292"/>
<path fill-rule="evenodd" clip-rule="evenodd" d="M166.363 34L199.684 85.3H193L210.173 111.484H201.506L215.727 133.037H117L131.221 111.484H122.553L139.727 85.3H133.043L166.363 34Z" fill="#629777"/>
<path fill-rule="evenodd" clip-rule="evenodd" d="M124.887 122.906H117.717V140.83C113.757 140.83 110.547 144.04 110.547 148H124.887V140.83H124.887V122.906Z" fill="#929292"/>
<path fill-rule="evenodd" clip-rule="evenodd" d="M132.057 122.906H139.226V140.83H139.226C143.186 140.83 146.396 144.04 146.396 148H132.057V148H132.057V122.906Z" fill="#929292"/>
<path fill-rule="evenodd" clip-rule="evenodd" d="M128.674 34L162.204 85.6225H155.478L172.759 111.972H164.037L178.348 133.66H79L93.3108 111.972H84.5884L101.87 85.6225H95.1443L128.674 34Z" fill="#1B442B"/>
<path fill-rule="evenodd" clip-rule="evenodd" d="M10.8866 122.906H3.71682V140.83C-0.242907 140.83 -3.45288 144.04 -3.45288 148H10.8867L10.8867 140.83H10.8866V122.906Z" fill="#929292"/>
<path fill-rule="evenodd" clip-rule="evenodd" d="M18.0565 122.906H25.2263V140.83H25.2264C29.1862 140.83 32.3962 144.04 32.3962 148H18.0566V148H18.0565V122.906Z" fill="#929292"/>
<path fill-rule="evenodd" clip-rule="evenodd" d="M14.6738 34L48.2036 85.6225H41.4779L58.7595 111.972H50.037L64.3476 133.66H-35L-20.6893 111.972H-29.4115L-12.1299 85.6225H-18.856L14.6738 34Z" fill="#245D3A"/>
<path fill-rule="evenodd" clip-rule="evenodd" d="M48.8872 122.906H41.7174V140.83H41.7172C37.7574 140.83 34.5474 144.04 34.5474 148H48.887V148H48.8872V122.906Z" fill="#929292"/>
<path fill-rule="evenodd" clip-rule="evenodd" d="M56.0564 122.906H63.2262V140.83H63.2262C67.186 140.83 70.396 144.04 70.396 148H56.0564V148H56.0564V122.906Z" fill="#929292"/>
<path fill-rule="evenodd" clip-rule="evenodd" d="M52.6742 34L86.204 85.6226H79.4779L96.7595 111.972H88.0369L102.348 133.66H3L17.3108 111.972H8.58832L25.8699 85.6226H19.1443L52.6742 34Z" fill="#90C79C"/>
<path fill-rule="evenodd" clip-rule="evenodd" d="M86.8867 122.906H79.7169L79.7169 140.83C75.7572 140.83 72.5471 144.04 72.5471 148H79.7169H86.8867V140.83V122.906Z" fill="#929292"/>
<path fill-rule="evenodd" clip-rule="evenodd" d="M94.0566 122.906H101.226L101.226 140.83C105.186 140.83 108.396 144.04 108.396 148H101.226H94.0566V140.83V122.906Z" fill="#929292"/>
<path fill-rule="evenodd" clip-rule="evenodd" d="M90.6739 34L124.204 85.6226H117.478L134.76 111.972H126.037L140.348 133.66H41L55.3108 111.972H46.5883L63.8699 85.6226H57.144L90.6739 34Z" fill="#2E9167"/>
<circle cx="86.1698" cy="69.8492" r="1.43396" fill="white"/>
<circle cx="95.4906" cy="69.849" r="1.43396" fill="white"/>
<path d="M85.0425 75.19C84.8244 75.0207 84.5103 75.0602 84.3409 75.2783C84.1716 75.4964 84.2111 75.8105 84.4292 75.9799L85.0425 75.19ZM97.2312 75.9799C97.4493 75.8105 97.4888 75.4964 97.3194 75.2783C97.1501 75.0602 96.836 75.0207 96.6179 75.19L97.2312 75.9799ZM84.4292 75.9799C85.3841 76.7214 87.438 78.2359 90.8302 78.2359V77.2359C87.7695 77.2359 85.9343 75.8825 85.0425 75.19L84.4292 75.9799ZM90.8302 78.2359C94.2223 78.2359 96.2762 76.7214 97.2312 75.9799L96.6179 75.19C95.726 75.8825 93.8909 77.2359 90.8302 77.2359V78.2359Z" fill="white"/>
</g>
</svg>
